<svg xmlns="http://www.w3.org/2000/svg" width="280.201" height="98.553" viewBox="0 0 280.201 98.553">
    <g data-name="Group 10879" transform="translate(-3352.981 -5210.959)">
        <g data-name="Group 10876">
            <path data-name="Path 27978" d="M3453.345 5319.611a43.054 43.054 0 0 1-10.739-1.356 44.322 44.322 0 0 1-14.9-7.006 45.442 45.442 0 0 1-17.6-25.662c-2.384-9.846-3.3-18.425-2.718-25.5.57-6.95 2.6-12.617 6.02-16.84 5.474-6.751 14.619-9.986 27.189-9.618 12.253.36 23.137 3.177 31.473 8.145a38.541 38.541 0 0 1 18.47 25.368 48.052 48.052 0 0 1 .413 19.306 45.124 45.124 0 0 1-6.91 17.055 35.418 35.418 0 0 1-23.944 15.59 44.626 44.626 0 0 1-6.754.518zm-14.651-85.449c-11.414 0-19.766 3.171-24.848 9.438-6.809 8.4-7.883 22.48-3.192 41.855 4.229 17.47 20.864 33.606 42.543 33.607a44.989 44.989 0 0 0 6.818-.524 34.86 34.86 0 0 0 23.564-15.351 46.442 46.442 0 0 0 6.415-35.92c-4.639-20.234-22.649-32.29-49.412-33.076q-.957-.028-1.889-.029z" transform="translate(-45.553 -19.016)" style="fill:#bb3127"/>
            <path data-name="Path 27979" d="M3460.836 5299.934q-1.839 0-3.767-.1c-12.069-.609-23.669-4.248-32.665-10.249a39.706 39.706 0 0 1-10.431-9.8 23.43 23.43 0 0 1-4.531-11.537c-1.156-13 .817-23.667 6.033-32.6a48.643 48.643 0 0 1 9.861-11.861 78.37 78.37 0 0 1 14.093-9.808 20.978 20.978 0 0 1 16.833-2.12c5.973 1.808 12.034 6.4 18.014 13.638a130.759 130.759 0 0 1 14.782 23.4l.016.037c6.179 18.111 6 31.692-.545 40.363a25.056 25.056 0 0 1-12.777 8.591 49.279 49.279 0 0 1-14.916 2.046zm-21.271-85.711.137.246c-23.022 12.872-31.905 28.941-29.7 53.729 1.414 15.9 22.541 29.839 47.1 31.078q1.885.1 3.683.095c12.742 0 22.136-3.569 27.3-10.415 6.419-8.511 6.576-21.91.468-39.824a130.183 130.183 0 0 0-14.706-23.278c-5.908-7.155-11.878-11.683-17.744-13.458a20.439 20.439 0 0 0-16.4 2.073z" transform="translate(-47.15)" style="fill:#bb3127"/>
            <path data-name="Path 27980" d="M3396.016 5336.015a33.538 33.538 0 0 1-19.221-6.229 55.979 55.979 0 0 1-15.413-13.211 33.345 33.345 0 0 1-6.641-14.785 37.494 37.494 0 0 1 .935-15.916 66.434 66.434 0 0 1 7.236-16.626l.008-.013a44.106 44.106 0 0 1 12.336-12.421 40.216 40.216 0 0 1 14.679-5.992 39.125 39.125 0 0 1 28.857 5.614c7.976 5.312 14.191 10.79 18.472 16.282 4.2 5.395 6.645 10.931 7.254 16.456 1.012 9.188-2.986 18.558-11.885 27.85-8.492 8.867-17.688 14.922-26.593 17.509a35.833 35.833 0 0 1-10.024 1.482zm-32.624-66.475c-14.825 25.094-10.214 45.2 13.7 59.77l.012.008c16.495 11.295 36.586 6.672 55.123-12.684l.2.194-.2-.194c8.778-9.166 12.726-18.385 11.732-27.4-1.212-11-9.785-21.881-25.479-32.333-15.865-10.566-40.808-8.727-55.088 12.639z" transform="translate(-1.087 -32.881)" style="fill:#bb3127"/>
            <path data-name="Path 27981" d="M3399.375 5325.636c-7.746 0-16.034-3.963-25.786-12.273a59.236 59.236 0 0 1-19-29.458 46.148 46.148 0 0 1-1.352-16.778 41.585 41.585 0 0 1 5.279-16.271 40.771 40.771 0 0 1 27.484-19.991 37.284 37.284 0 0 1 30.589 7.52 54.888 54.888 0 0 1 19.61 31.152c2.583 11.676.93 23.112-4.533 31.376-10.142 15.339-19.4 23.125-29.139 24.5a22.41 22.41 0 0 1-3.152.223zm-6.1-94.915a37.508 37.508 0 0 0-7.167.7 40.206 40.206 0 0 0-27.1 19.718c-11.108 19.417-4.958 44.831 14.954 61.8 9.645 8.22 17.817 12.139 25.425 12.139a21.9 21.9 0 0 0 3.067-.215c9.567-1.352 18.7-9.06 28.749-24.255 5.381-8.138 7-19.417 4.454-30.946a54.327 54.327 0 0 0-19.409-30.833 36.87 36.87 0 0 0-22.977-8.108z" transform="translate(0 -16.124)" style="fill:#bb3127"/>
            <path data-name="Path 27982" d="M3428.968 5313.759q-1.444 0-2.944-.06c-11.339-.453-22.214-3.657-30.621-9.022a35.869 35.869 0 0 1-9.73-8.8 20.456 20.456 0 0 1-4.171-10.435c-.981-11.78.962-21.464 5.939-29.605a45.675 45.675 0 0 1 9.367-10.832 75.605 75.605 0 0 1 13.325-9 20.459 20.459 0 0 1 16.212-1.95c5.531 1.677 11.121 5.812 16.613 12.291a115.817 115.817 0 0 1 13.55 20.9l.017.038c5.556 16.063 5.386 28.23-.507 36.164a23.813 23.813 0 0 1-12.125 8.24 48.477 48.477 0 0 1-14.925 2.071zm-18.7-77.515.134.246c-21.733 11.847-30.209 26.472-28.341 48.9 1.2 14.378 20.929 26.825 43.985 27.747q1.467.058 2.881.059c12.545 0 21.721-3.463 26.642-10.088 5.773-7.772 5.918-19.758.434-35.625a115.231 115.231 0 0 0-13.471-20.783c-5.421-6.4-10.922-10.471-16.348-12.116a19.917 19.917 0 0 0-15.78 1.906z" transform="translate(-23.747 -18.656)" style="fill:#bb3127"/>
        </g>
        <circle data-name="Ellipse 2772" cx="39.999" cy="39.999" r="39.999" transform="translate(3360.09 5218.67)" style="fill:#bb3127"/>
        <g data-name="Group 10877" transform="translate(3377.941 5243.197)">
            <path data-name="Path 27983" d="M3551.441 5515.916h-40.926a1.684 1.684 0 1 1 0-3.369h40.926a1.684 1.684 0 1 1 0 3.369z" transform="translate(-3508.83 -5496.484)" style="fill:#fff"/>
            <rect data-name="Rectangle 5644" width="4.768" height="26.313" rx="2.384" transform="rotate(-90 14.293 5.883)" style="fill:#fff"/>
            <path data-name="Path 27984" d="M3549.933 5564.983a1.684 1.684 0 0 1-1.284-2.773l5.33-6.293a1.684 1.684 0 0 1 2.571 2.177l-5.33 6.293a1.681 1.681 0 0 1-1.287.596z" transform="translate(-3541.936 -5532.41)" style="fill:#fff"/>
            <path data-name="Path 27985" d="M3691.024 5564.983a1.68 1.68 0 0 1-1.286-.6l-5.33-6.293a1.684 1.684 0 0 1 2.57-2.177l5.33 6.293a1.684 1.684 0 0 1-1.284 2.773z" transform="translate(-3655.954 -5532.41)" style="fill:#fff"/>
            <path data-name="Path 27986" d="M3593.411 5423.687a1.117 1.117 0 0 1-.794-.33 4.891 4.891 0 0 1-1.341-2.9l-.009-.069v-.069a4.935 4.935 0 0 1 1.717-3.509 2.051 2.051 0 0 0-.367-2.639 1.123 1.123 0 0 1 1.588-1.588 4.279 4.279 0 0 1 .477 5.7l-.069.075a2.856 2.856 0 0 0-1.1 1.9 2.689 2.689 0 0 0 .691 1.519 1.123 1.123 0 0 1-.794 1.917z" transform="translate(-3578.064 -5412.253)" style="fill:#fff"/>
            <path data-name="Path 27987" d="M3632.41 5423.906a1.093 1.093 0 0 0 .819-.367 4.86 4.86 0 0 0 1.3-3.137 4.4 4.4 0 0 0-.3-1.575l-.042-.105-.134-.2a4.257 4.257 0 0 0-1.1-1.239 1.484 1.484 0 0 1-.453-1.043 2.577 2.577 0 0 1 .712-1.8 1.1 1.1 0 0 0-1.595-1.5 4.772 4.772 0 0 0-1.3 3.4 3.691 3.691 0 0 0 1.229 2.622l.057.051.063.042a2.161 2.161 0 0 1 .57.679 2.281 2.281 0 0 1 .108.67 2.7 2.7 0 0 1-.745 1.682 1.095 1.095 0 0 0 .818 1.822z" transform="translate(-3610.85 -5412.537)" style="fill:#fff"/>
            <path data-name="Path 27988" d="M3671.632 5423.688a1.119 1.119 0 0 1-.84-.377 4.77 4.77 0 0 1-1.067-4.388l.016-.062.022-.06a5.185 5.185 0 0 1 1.147-1.685c.179-.2.349-.382.489-.57a2.3 2.3 0 0 0-.6-2.419 1.123 1.123 0 1 1 1.669-1.5 4.429 4.429 0 0 1 .85 5.094l-.056.087a8.8 8.8 0 0 1-.69.824 3.637 3.637 0 0 0-.682.9 2.551 2.551 0 0 0 .583 2.283 1.123 1.123 0 0 1-.839 1.869z" transform="translate(-3643.831 -5412.254)" style="fill:#fff"/>
        </g>
        <g data-name="Group 10878">
            <path data-name="Path 27989" d="M3992.666 5354.023a14.513 14.513 0 0 0-4.051-.6q-11.736.3-13.7 10.127h16.2c.158.02.238.1.238.238v6.434a.211.211 0 0 1-.238.238h-16.681v24.068a.211.211 0 0 1-.238.238h-6.315a.211.211 0 0 1-.239-.238v-19.659q0-4.23-.119-7.745.119-.983.119-4.766 4.081-16.859 23.71-15.728h.477q.417 0 .834.03z" transform="translate(-516.124 -113.888)" style="fill:#fff"/>
            <path data-name="Path 27990" d="M4158.521 5387.928h1.072q9.294 0 16.085 8.221a19.885 19.885 0 0 1 4.17 11.8v1.668q0 2.145-.357 2.145h-34.553v.119a14.631 14.631 0 0 0 13.821 11.32h.6q6.374 0 11.2-5.481h7.149q-2.889 6.791-10.724 10.247a20.717 20.717 0 0 1-7.745 1.549H4159q-11.052 0-17.872-10.247a21.927 21.927 0 0 1-2.859-10.6q0-10.872 10.008-17.753a20.683 20.683 0 0 1 10.244-2.988zm-13.583 17.634q23.681.119 28.357.119v-.119q-1.818-6.226-6.076-8.936a14.716 14.716 0 0 0-7.626-2.383h-1.193q-6.523 0-11.438 6.434a15.827 15.827 0 0 0-2.024 4.885z" transform="translate(-659.52 -148.627)" style="fill:#fff"/>
            <path data-name="Path 27991" d="M4447.085 5385.882h6.434c.159.02.238.1.238.238v38.961q0 7.536-5.958 14.06-6.7 6.314-14.417 6.314h-1.43q-9.86 0-17.038-9.532a20.526 20.526 0 0 0-1.311-2.383l.238-.119h7.625q4.766 5.243 10.723 5.243h.953q7.417 0 12.034-7.268a12.055 12.055 0 0 0 1.668-5.242v-3.454q-6.523 5.362-13.464 5.362h-1.43q-6.911 0-13.464-5.362-4.02-3.991-5-6.91a19.546 19.546 0 0 1-1.906-7.864v-21.685c.02-.158.1-.238.238-.238h6.435q.238.031.238.238v25.379a18.68 18.68 0 0 0 2.86 4.289q4.855 5.362 10.842 5.362h.953q6.256 0 9.89-3.768t3.813-5.883v-25.5c.017-.159.097-.238.236-.238z" transform="translate(-889.061 -146.908)" style="fill:#bb3127"/>
            <path data-name="Path 27992" d="M4707.278 5427.011a22 22 0 0 1-8.7-2.026q-6.762-3.693-9.055-8.7h8.34a14.209 14.209 0 0 0 10.008 3.932h.12q3.455 0 6.911-.253t5.391-3.917a3.189 3.189 0 0 0-.209-3.1q-.685-1.4-6.91-2.412-2.086-.358-4.767-.655-10.753-1.222-14.953-3.485l-2.74-2.025q-4.171-4.676-.477-10.247 7.178-9.174 16.8-9.174h1.43a19.282 19.282 0 0 1 8.817 2.263 21.051 21.051 0 0 1 10.127 10.962l-.238.119h-7.149q-5.065-6.553-11.8-6.553h-.953q-11.081 1.28-12.153 7.744 1.728 2.5 11.84 3.9a63.787 63.787 0 0 1 16.636 4.26q5.779 3.456 2.5 12.153-7.031 8.1-18.11 7.209z" transform="translate(-1121.636 -146.127)" style="fill:#fff"/>
            <path data-name="Path 27993" d="M4970.73 5389.513v7.387c-.279.02-.557.03-.834.03h-.477q-19.63 1.132-23.71-15.728 0-3.782-.119-4.766.119-3.514.119-7.745v-19.957a.211.211 0 0 1 .239-.238h6.314a.211.211 0 0 1 .239.238v10.991l18.169-.358v7.179l-18.169-.03v6.583l.476 6.911q1.967 9.83 13.7 10.128a13.852 13.852 0 0 0 4.053-.625z" transform="translate(-1337.548 -115.511)" style="fill:#fff"/>
        </g>
        <path data-name="Line 1842" transform="translate(3380.523 5259.6)" style="fill:none;stroke:#fff;stroke-miterlimit:10" d="M8.366 0H0"/>
    </g>
</svg>
