<svg width="10" height="15" viewBox="0 0 10 15" fill="none" xmlns="http://www.w3.org/2000/svg">
<path d="M2.71019 5.21189L5.00019 2.91189L7.29019 5.21189C7.38315 5.30562 7.49375 5.38001 7.61561 5.43078C7.73747 5.48155 7.86817 5.50769 8.00019 5.50769C8.1322 5.50769 8.2629 5.48155 8.38476 5.43078C8.50662 5.38001 8.61722 5.30562 8.71019 5.21189C8.80391 5.11893 8.87831 5.00833 8.92908 4.88647C8.97985 4.76461 9.00598 4.6339 9.00598 4.50189C9.00598 4.36988 8.97985 4.23917 8.92908 4.11732C8.87831 3.99546 8.80391 3.88486 8.71019 3.79189L5.71019 0.791892C5.61722 0.698164 5.50662 0.62377 5.38476 0.573001C5.2629 0.522232 5.1322 0.496094 5.00019 0.496094C4.86817 0.496094 4.73747 0.522232 4.61561 0.573001C4.49375 0.62377 4.38315 0.698164 4.29019 0.791892L1.29019 3.79189C1.10188 3.9802 0.996094 4.23559 0.996094 4.50189C0.996094 4.76819 1.10188 5.02359 1.29019 5.21189C1.47849 5.4002 1.73388 5.50598 2.00019 5.50598C2.26649 5.50598 2.52188 5.4002 2.71019 5.21189ZM7.29019 9.79189L5.00019 12.0919L2.71019 9.79189C2.61695 9.69865 2.50626 9.62469 2.38444 9.57423C2.26261 9.52377 2.13204 9.4978 2.00019 9.4978C1.86833 9.4978 1.73776 9.52377 1.61594 9.57423C1.49411 9.62469 1.38342 9.69865 1.29019 9.79189C1.19695 9.88513 1.12299 9.99582 1.07253 10.1176C1.02207 10.2395 0.996094 10.37 0.996094 10.5019C0.996094 10.6338 1.02207 10.7643 1.07253 10.8861C1.12299 11.008 1.19695 11.1187 1.29019 11.2119L4.29019 14.2119C4.38315 14.3056 4.49375 14.38 4.61561 14.4308C4.73747 14.4816 4.86817 14.5077 5.00019 14.5077C5.1322 14.5077 5.2629 14.4816 5.38476 14.4308C5.50662 14.38 5.61722 14.3056 5.71019 14.2119L8.71019 11.2119C8.89849 11.0236 9.00428 10.7682 9.00428 10.5019C9.00428 10.2356 8.89849 9.9802 8.71019 9.79189C8.52188 9.60359 8.26649 9.4978 8.00019 9.4978C7.73388 9.4978 7.47849 9.60359 7.29019 9.79189Z" fill="#949699"/>
</svg>
