<svg width="55" height="20" viewBox="0 0 55 20" fill="none" xmlns="http://www.w3.org/2000/svg">
<g clip-path="url(#clip0_2529_41125)">
<path d="M14.9273 13.036H4.12727C4.23636 15.5633 5.47273 16.836 7.8 16.836C8.6 16.836 9.30909 16.6179 9.94546 16.1997C10.5455 15.836 10.9091 15.3997 11.0545 14.8906H14.6727C13.5636 18.2542 11.2364 19.927 7.65455 19.927C5.30909 19.927 3.45454 19.1997 2.07273 17.7451C0.690908 16.2906 0 14.3815 0 12.0542C0 9.7815 0.70909 7.89059 2.12727 6.3815C3.54545 4.89059 5.38182 4.12695 7.65455 4.12695C10.0909 4.12695 11.9636 5.03604 13.3091 6.85423C14.5455 8.52695 15.0727 10.5815 14.9273 13.036ZM4.10909 10.436H10.8C10.4182 8.30877 9.32727 7.25423 7.52727 7.25423C6.36364 7.25423 5.47273 7.63605 4.85455 8.41786C4.4 8.9815 4.14546 9.65423 4.10909 10.436Z" fill="#292D33" fill-opacity="0.3"/>
<path d="M35.6908 0.0722656V4.56318H38.709V7.69045H35.6908V14.7268C35.6908 15.4177 35.7999 15.8905 36.0363 16.1086C36.2726 16.345 36.7272 16.4541 37.4181 16.4541C37.8726 16.4541 38.309 16.4177 38.6908 16.345V19.5632C38.109 19.6541 37.309 19.7086 36.2908 19.7086C33.1454 19.7086 31.5635 18.5268 31.5635 16.145V7.69045H29.0908V4.56318H31.5817V0.0722656H35.6908Z" fill="#292D33" fill-opacity="0.3"/>
<path d="M39.0547 12.0536C39.0547 9.65362 39.7638 7.74453 41.1638 6.30817C42.5638 4.8718 44.4365 4.14453 46.782 4.14453C49.1456 4.14453 51.0183 4.8718 52.4365 6.30817C53.8365 7.74453 54.5456 9.65362 54.5456 12.0536C54.5456 14.4354 53.8365 16.3263 52.4365 17.7809C51.0183 19.2173 49.1456 19.9445 46.782 19.9445C44.4547 19.9445 42.582 19.2173 41.1638 17.7809C39.7638 16.3445 39.0547 14.4354 39.0547 12.0536ZM43.1638 12.0536C43.1638 13.4173 43.4183 14.5082 43.9456 15.3263C44.5638 16.3263 45.5092 16.8354 46.782 16.8354C49.2183 16.8354 50.4365 15.2354 50.4365 12.0536C50.4365 8.85362 49.2183 7.25362 46.782 7.25362C44.3638 7.25362 43.1638 8.85362 43.1638 12.0536Z" fill="#292D33" fill-opacity="0.3"/>
<path d="M13.6362 19.5271L19.018 11.6544L14.0908 4.56348H18.7817L21.418 8.47257L23.6544 11.5635L21.3635 14.7998L18.2362 19.5271H13.6362Z" fill="#292D33" fill-opacity="0.3"/>
<path d="M23.6546 11.5635L28.5818 4.56348H24.0364L21.4364 8.47257L23.6546 11.5635L21.3818 14.7998L24.5091 19.5271H29.2L23.6546 11.5635Z" fill="#292D33" fill-opacity="0.3"/>
</g>
<defs>
<clipPath id="clip0_2529_41125">
<rect width="54.5455" height="20" fill="white"/>
</clipPath>
</defs>
</svg>
