<svg xmlns="http://www.w3.org/2000/svg" width="18" height="20" viewBox="0 0 18 20">
    <path d="M12.791 0a.712.712 0 0 1 .661.734V1.77C16.461 2.062 18 3.725 18 6.714v8.27C18 18.311 16.1 20 12.374 20H5.626C1.9 20 0 18.311 0 14.985V6.714a4.542 4.542 0 0 1 2.07-4.245l.1-.056a.685.685 0 0 1 .635.029.713.713 0 0 1-.075 1.265 3.142 3.142 0 0 0-1.356 3.007v.266h12.687a.7.7 0 0 1 0 1.4H1.374v6.607c0 2.538 1.235 3.591 4.252 3.609h6.748c2.974 0 4.243-1.079 4.243-3.618V6.706c0-2.211-.965-3.282-3.165-3.538v.672a.695.695 0 0 1-1.383-.053V.673l.013-.111a.7.7 0 0 1 .21-.379.68.68 0 0 1 .499-.183zm.4 14.2.111.007a.864.864 0 0 1 .505.249.892.892 0 0 1 .258.629.87.87 0 1 1-.87-.884zm-4.17 0 .109.007a.869.869 0 1 1-.109-.007zm-4.169 0 .111.007a.864.864 0 0 1 .505.249.892.892 0 0 1 .258.629.87.87 0 1 1-.87-.884zm8.339-3.582.111.007a.864.864 0 0 1 .505.249.892.892 0 0 1 .258.629.87.87 0 1 1-.87-.884zm-4.17 0 .109.007a.869.869 0 1 1-.109-.007zm-4.169 0 .111.007a.864.864 0 0 1 .505.249.892.892 0 0 1 .258.629.87.87 0 1 1-.87-.884zM5.239.106a.7.7 0 0 1 .691.629V1.7h3.93a.7.7 0 0 1 0 1.4H5.913v.7a.7.7 0 0 1-.2.5.681.681 0 0 1-.491.2l-.1-.01a.7.7 0 0 1-.569-.7V.735l.019-.1a.7.7 0 0 1 .667-.529z" style="fill:#fff"/>
</svg>
