<svg xmlns="http://www.w3.org/2000/svg" width="14.17" height="15.763" viewBox="0 0 14.17 15.763">
    <path data-name="home" d="M16.383 6.718 11.66 2.577a2.362 2.362 0 0 0-3.149 0L3.787 6.718A2.362 2.362 0 0 0 3 8.5v6.88a2.362 2.362 0 0 0 2.362 2.362h9.447a2.362 2.362 0 0 0 2.362-2.362V8.49a2.362 2.362 0 0 0-.787-1.771zm-4.723 9.447H8.511v-3.936a.787.787 0 0 1 .787-.787h1.574a.787.787 0 0 1 .787.787zm3.936-.787a.787.787 0 0 1-.787.787h-1.575v-3.936a2.362 2.362 0 0 0-2.362-2.362H9.3a2.362 2.362 0 0 0-2.362 2.362v3.936H5.362a.787.787 0 0 1-.787-.787V8.49a.787.787 0 0 1 .268-.59l4.722-4.134a.787.787 0 0 1 1.039 0L15.328 7.9a.787.787 0 0 1 .268.59z" transform="translate(-3 -1.976)" style="fill:#fff"/>
</svg>
