<svg xmlns="http://www.w3.org/2000/svg" width="15.369" height="20" viewBox="0 0 15.369 20">
    <path d="M12.118 9.187a4.1 4.1 0 1 0-4.092-4.1 4.1 4.1 0 0 0 4.092 4.1zm0-6.858a2.766 2.766 0 1 1-2.759 2.76 2.766 2.766 0 0 1 2.759-2.759zM19.7 18.2c-.8 2.059-4.439 2.792-7.584 2.792s-6.782-.735-7.582-2.792a4.967 4.967 0 0 1 .993-4.259 8.071 8.071 0 0 1 6.591-3.612 8.157 8.157 0 0 1 7.271 4.832.666.666 0 1 1-1.213.54 6.911 6.911 0 0 0-6.058-4.039 6.724 6.724 0 0 0-5.485 3.032 3.792 3.792 0 0 0-.86 3.026c.44 1.126 3.106 1.939 6.345 1.939s5.9-.813 6.345-1.939a.666.666 0 0 1 1.24.48z" transform="translate(-4.362 -.99)" style="fill:#fff"/>
</svg>
