<svg xmlns="http://www.w3.org/2000/svg" width="18.45" height="18.45" viewBox="0 0 18.45 18.45">
    <path data-name="Path 28137" d="M0 0h18.45v18.45H0z" style="fill:none"/>
    <path data-name="Path 28138" d="M14.951 8.424a4.611 4.611 0 0 0-3.263-1.349v4.613l-3.264 3.263a4.615 4.615 0 0 0 6.527-6.527zM11.688 4a7.688 7.688 0 1 0 7.688 7.688A7.685 7.685 0 0 0 11.688 4zm0 13.838a6.15 6.15 0 1 1 6.15-6.15 6.148 6.148 0 0 1-6.15 6.15z" transform="translate(-2.462 -2.462)" style="fill:#212129"/>
</svg>
